<?xml version="1.0" encoding="utf-8"?>
<!-- Generator: Adobe Illustrator 19.2.1, SVG Export Plug-In . SVG Version: 6.00 Build 0)  -->
<svg version="1.1" id="Layer_1" xmlns="http://www.w3.org/2000/svg" xmlns:xlink="http://www.w3.org/1999/xlink" x="0px" y="0px"
	 viewBox="0 0 569.3 102" enable-background="new 0 0 569.3 102" xml:space="preserve">
<g>
	<path fill="#9FAEC8" d="M15.4,12.9V15c0,1.5-0.5,2.8-1.6,3.9c-1,1.1-2.3,1.6-3.8,1.6S7.3,20,6.2,18.9c-1.1-1.1-1.6-2.4-1.6-3.9
		v-2.1c0-1.5,0.5-2.7,1.6-3.8C7.3,8,8.6,7.5,10.1,7.5S12.8,8,13.9,9C14.9,10.1,15.4,11.4,15.4,12.9z M6.2,29.1c1-1,2.3-1.5,3.8-1.5
		c1.5,0,2.8,0.5,3.9,1.5c1,1,1.6,2.4,1.6,4v39c0,1.5-0.5,2.8-1.6,3.9c-1,1-2.3,1.5-3.8,1.5S7.3,77,6.2,75.9
		c-1.1-1.1-1.6-2.3-1.6-3.8v-39C4.6,31.5,5.1,30.2,6.2,29.1z"/>
	<path fill="#5B628B" d="M33.6,72.1V12.9c0-1.5,0.5-2.7,1.6-3.8c1.1-1.1,2.4-1.6,3.9-1.6s2.8,0.5,3.9,1.6c1.1,1.1,1.6,2.3,1.6,3.8
		v18.8c4-2.8,8.5-4.2,13.4-4.2c6.7,0,12.5,2.5,17.2,7.4c4.7,4.9,7.1,10.8,7.1,17.6c0,6.8-2.4,12.7-7.1,17.6
		c-4.7,4.9-10.5,7.4-17.2,7.4c-4.9,0-9.4-1.4-13.6-4.3c-0.3,1.2-0.9,2.2-1.9,3c-1,0.8-2.1,1.2-3.5,1.2s-2.6-0.5-3.7-1.6
		C34.2,74.8,33.6,73.6,33.6,72.1z M67.4,42.6c-2.6-2.8-5.8-4.2-9.5-4.2c-3.7,0-6.9,1.4-9.5,4.2c-2.6,2.8-3.9,6.1-3.9,9.9
		c0,3.8,1.3,7.1,3.9,9.9c2.6,2.8,5.8,4.1,9.5,4.1c3.7,0,6.8-1.4,9.4-4.1c2.6-2.8,4-6.1,4-9.9C71.3,48.7,70,45.4,67.4,42.6z"/>
	<path fill="#5B628B" d="M145.6,51.2c0,1.5-0.5,2.6-1.4,3.5c-1,0.9-2.2,1.4-3.9,1.4h-31.8c0.6,2.9,1.7,5.1,3.4,6.6
		c2.1,2.5,5.2,3.9,9.4,4.4c4.1,0.5,7.6-0.3,10.6-2.4c1-1.1,2.3-1.6,4-1.6c1.7,0,2.8,0.4,3.5,1.3c1.9,2.1,1.9,4.2,0,6.5
		c-4.8,4.4-10.7,6.6-17.6,6.6c-7,0-12.8-2.5-17.5-7.4c-4.7-4.9-7.1-10.7-7.2-17.6c0.1-6.9,2.5-12.8,7.2-17.6
		c4.7-4.9,10.4-7.4,17-7.4c6.7,0,12.3,2.2,16.9,6.5c4.6,4.4,7,9.9,7.4,16.7V51.2z M121.5,37c-3.9,0.2-7,1.4-9.3,3.6
		c-2.3,2.2-3.7,4.5-4.2,7h28.3c-0.6-2.3-2.2-4.6-4.9-6.8C128.8,38.6,125.5,37.3,121.5,37z"/>
	<path fill="#5B628B" d="M163.2,13c0-1.5,0.5-2.8,1.6-3.9c1.1-1.1,2.4-1.6,3.9-1.6c1.5,0,2.9,0.5,4,1.6c1.1,1.1,1.6,2.4,1.6,3.9v59
		c0,1.5-0.6,2.8-1.6,3.9c-1.1,1.1-2.4,1.6-4,1.6c-1.5,0-2.8-0.5-3.9-1.6c-1.1-1.1-1.6-2.4-1.6-3.9V13z"/>
	<path fill="#5B628B" d="M199.3,12.9V15c0,1.5-0.5,2.8-1.6,3.9c-1,1.1-2.3,1.6-3.8,1.6s-2.8-0.5-3.9-1.6c-1.1-1.1-1.6-2.4-1.6-3.9
		v-2.1c0-1.5,0.5-2.7,1.6-3.8c1.1-1.1,2.4-1.6,3.9-1.6s2.8,0.5,3.8,1.5C198.8,10.1,199.3,11.4,199.3,12.9z M190.1,29.1
		c1-1,2.3-1.5,3.8-1.5c1.5,0,2.8,0.5,3.9,1.5c1,1,1.6,2.4,1.6,4v39c0,1.5-0.5,2.8-1.6,3.9c-1,1-2.3,1.5-3.8,1.5s-2.8-0.5-3.9-1.6
		c-1.1-1.1-1.6-2.3-1.6-3.8v-39C188.5,31.5,189,30.2,190.1,29.1z"/>
	<path fill="#5B628B" d="M262.5,51.2c0,1.5-0.5,2.6-1.4,3.5c-1,0.9-2.2,1.4-3.9,1.4h-31.8c0.6,2.9,1.7,5.1,3.4,6.6
		c2.1,2.5,5.2,3.9,9.4,4.4c4.1,0.5,7.6-0.3,10.6-2.4c1-1.1,2.3-1.6,4-1.6c1.7,0,2.8,0.4,3.5,1.3c1.9,2.1,1.9,4.2,0,6.5
		c-4.8,4.4-10.7,6.6-17.6,6.6c-7,0-12.8-2.5-17.5-7.4c-4.7-4.9-7.1-10.7-7.2-17.6c0.1-6.9,2.5-12.8,7.2-17.6
		c4.7-4.9,10.4-7.4,17-7.4c6.7,0,12.3,2.2,16.9,6.5c4.6,4.4,7,9.9,7.4,16.7V51.2z M238.4,37c-3.9,0.2-7,1.4-9.3,3.6
		c-2.3,2.2-3.7,4.5-4.2,7h28.3c-0.6-2.3-2.2-4.6-4.9-6.8C245.7,38.6,242.4,37.3,238.4,37z"/>
	<path fill="#5B628B" d="M295.6,77.1c-1.1-0.5-1.8-1-2-1.4c-0.2-0.4-0.3-0.6-0.3-0.6c-0.2-0.1-0.4-0.3-0.5-0.8l-16.2-38.8
		c-0.6-1.3-0.6-2.6,0-4c0.6-1.3,1.5-2.2,2.9-2.8c1.2-0.6,2.5-0.6,3.8,0c1.3,0.6,2.3,1.6,2.9,2.9l11.5,27.2l11.6-27.2
		c0.5-1.3,1.4-2.3,2.8-2.9c1.3-0.6,2.6-0.6,4,0c1.4,0.6,2.3,1.5,2.9,2.8c0.6,1.3,0.6,2.6,0,4l-16.4,38.8c-0.1,0.3-0.3,0.6-0.4,0.7
		c-0.1,0.1-0.3,0.3-0.4,0.5c-0.1,0.2-0.4,0.4-0.6,0.6c-0.3,0.3-0.5,0.5-0.7,0.6c-0.1,0.2-0.3,0.3-0.5,0.4h-0.2v0.1
		c-0.3,0-0.5,0.1-0.8,0.2h-0.2c-0.3,0.1-0.6,0.1-1,0.1c-0.4,0-0.7,0-0.9-0.1h-0.2c-0.4-0.1-0.7-0.2-0.8-0.2v-0.1H295.6z"/>
	<path fill="#5B628B" d="M383.6,51.2c0,1.5-0.5,2.6-1.5,3.5c-1,0.9-2.2,1.4-3.8,1.4h-31.8c0.6,2.9,1.7,5.1,3.4,6.6
		c2.1,2.5,5.2,3.9,9.4,4.4c4.1,0.5,7.6-0.3,10.6-2.4c1-1.1,2.3-1.6,4-1.6c1.7,0,2.8,0.4,3.5,1.3c1.9,2.1,1.9,4.2,0,6.5
		c-4.8,4.4-10.7,6.6-17.6,6.6c-7,0-12.8-2.5-17.5-7.4c-4.7-4.9-7.1-10.7-7.2-17.6c0.1-6.9,2.5-12.8,7.2-17.6s10.4-7.4,17-7.4
		c6.7,0,12.3,2.2,16.8,6.5c4.6,4.4,7.1,9.9,7.5,16.7V51.2z M359.5,37c-3.9,0.2-7,1.4-9.3,3.6c-2.3,2.2-3.7,4.5-4.2,7h28.3
		c-0.6-2.3-2.2-4.6-4.8-6.8C366.8,38.6,363.5,37.3,359.5,37z"/>
	<path fill="#9FAEC8" d="M429.1,29c1-1,2.2-1.5,3.7-1.5c1.5,0,2.7,0.5,3.8,1.5c1.1,1,1.6,2.3,1.6,3.8v37.8c0,6.7-2.3,12.3-7,16.9
		c-4.6,4.6-10.3,7-17,7c-3.5,0-7-0.8-10.3-2.5c-1.4-0.6-2.3-1.6-2.8-3c-0.5-1.4-0.4-2.8,0.2-4.1c0.7-1.2,1.7-2,3.1-2.5
		c1.4-0.5,3-0.3,4.6,0.5c1.6,0.8,3.6,1.2,6,1.1c2.4,0,4.8-0.9,7-2.6c2.3-1.7,3.8-3.9,4.6-6.5c-2.8,1.6-6,2.4-9.5,2.4
		c-5.7,0-10.6-2.1-14.8-6.2c-4.1-4.1-6.1-9.1-6.1-14.8V32.8c0-1.5,0.5-2.7,1.5-3.8c1-1,2.3-1.5,3.8-1.5c1.5,0,2.7,0.5,3.7,1.5
		s1.5,2.3,1.5,3.8v23.6c0,2.9,1,5.3,3,7.2c2,2,4.5,3,7.3,3c2.9,0,5.3-1,7.3-3c2-2,3-4.4,3-7.2V32.8C427.6,31.3,428.1,30,429.1,29z"
		/>
	<path fill="#9FAEC8" d="M482.1,77.8c-6.7,0-12.4-2.5-17.1-7.4c-4.7-4.9-7-10.8-7-17.7c0-6.9,2.3-12.8,7-17.8c4.7-5,10.4-7.5,17-7.5
		s12.2,2.5,16.8,7.5c4.6,5,7,11,7,18c0,6.9-2.3,12.7-7,17.2C494.4,75.3,488.8,77.8,482.1,77.8z M472.5,42.2
		c-2.4,2.8-3.6,6.3-3.6,10.4c0,4.1,1.2,7.7,3.6,10.6c2.6,2.5,5.7,3.7,9.4,3.7c3.7,0,6.8-1.2,9.4-3.7c2.6-2.9,3.9-6.5,3.9-10.6
		c0-4.1-1.3-7.6-3.9-10.4c-2.9-2.5-6-3.8-9.4-3.8C478.5,38.4,475.4,39.7,472.5,42.2z"/>
	<path fill="#9FAEC8" d="M564.7,56.7c0,5.7-2.1,10.5-6.2,14.6c-4.2,4.1-9.1,6.1-14.8,6.1c-5.7,0-10.6-2-14.7-6.1
		c-4.1-4.1-6.2-9-6.2-14.7V32.8c0-1.4,0.5-2.6,1.5-3.7c1-1.1,2.3-1.6,3.8-1.6c1.5,0,2.7,0.5,3.8,1.6c1,1.1,1.6,2.3,1.6,3.7v23.9
		c0,2.9,1,5.3,2.9,7.2c2,2,4.4,2.9,7.2,2.9c2.9,0,5.3-1,7.4-2.9c2-2,3.1-4.4,3.1-7.2V32.8c0-1.4,0.5-2.6,1.5-3.7
		c1-1.1,2.2-1.6,3.7-1.6c1.4,0,2.7,0.5,3.8,1.6c1.1,1.1,1.7,2.3,1.7,3.7V56.7z"/>
</g>
</svg>
